<svg width="103" height="24" viewBox="0 0 103 24" fill="none" xmlns="http://www.w3.org/2000/svg">
<g clip-path="url(#clip0_5647_35664)">
<path d="M34.7324 7.83998H36.892V8.63454C37.4179 8.0802 38.4132 7.63672 39.5212 7.63672C41.8498 7.63672 43.3709 9.41063 43.3709 11.8867C43.3709 14.4182 41.6057 16.3954 38.8827 16.3954C38.1315 16.3954 37.3991 16.2661 36.9108 15.9889V19.9063H34.7512V7.83998H34.7324ZM36.9108 10.5378V13.9193C37.493 14.2889 37.9812 14.3998 38.6949 14.3998C40.1972 14.3998 41.0611 13.328 41.0611 11.9422C41.0611 10.6117 40.2723 9.65085 38.8451 9.65085C38.1127 9.63237 37.4366 9.96498 36.9108 10.5378Z" fill="black"/>
<path d="M29.3802 7.67578C26.6572 7.67578 24.892 9.63448 24.892 12.1845C24.892 14.6606 26.3943 16.4345 28.7417 16.4345C29.8309 16.4345 30.8262 15.991 31.3708 15.4367V16.2312H33.5305V9.22796C31.9154 8.02687 30.1314 7.67578 29.3802 7.67578ZM31.3521 13.5334C30.8262 14.1062 30.1502 14.4388 29.4178 14.4388C27.9906 14.4388 27.2018 13.478 27.2018 12.1475C27.2018 10.7617 28.0657 9.67143 29.568 9.67143C30.2816 9.67143 30.7699 9.7823 31.3521 10.1519V13.5334Z" fill="black"/>
<path d="M44.291 7.83998H46.4506V8.63454C46.9765 8.0802 47.9718 7.63672 49.0797 7.63672C51.4084 7.63672 52.9295 9.41063 52.9295 11.8867C52.9295 14.4182 51.1642 16.3954 48.4412 16.3954C47.6901 16.3954 46.9577 16.2661 46.4694 15.9889V19.9063H44.3098V7.83998H44.291ZM46.4694 10.5378V13.9193C47.0516 14.2889 47.5398 14.3998 48.2535 14.3998C49.7558 14.3998 50.6196 13.328 50.6196 11.9422C50.6196 10.6117 49.8309 9.65085 48.4037 9.65085C47.6713 9.63237 46.9952 9.96498 46.4694 10.5378Z" fill="black"/>
<path d="M59.2019 5.43913C58.8826 5.21739 58.3756 4.99565 57.8685 4.99565C56.892 4.99565 56.3849 5.49457 56.3849 6.64022V7.82283H57.9061V9.83696H56.3849V16.175H54.2065V6.49239C54.2065 4.18261 55.3333 3 57.23 3C58.0939 3 58.8826 3.20326 59.446 3.55435H61.3615V13.0152C61.3615 13.9576 61.6056 14.3641 62.0939 14.3641C62.4507 14.3641 62.7324 14.2163 62.9953 14.0315L63.446 15.6576C62.9577 16.0457 62.2253 16.3598 61.2112 16.3598C59.9155 16.3598 59.2019 15.5837 59.2019 13.8837V5.43913Z" fill="black"/>
<path d="M68.0846 7.63672C70.9015 7.63672 72.7043 9.50302 72.7043 12.0161C72.7043 14.5106 70.9015 16.3954 68.0846 16.3954C65.2677 16.3954 63.4648 14.5291 63.4648 12.0161C63.4648 9.50302 65.2864 7.63672 68.0846 7.63672ZM68.0846 14.3998C69.4179 14.3998 70.3944 13.4574 70.3944 12.0161C70.3944 10.6117 69.3991 9.65085 68.0846 9.65085C66.8076 9.65085 65.7935 10.5748 65.7935 12.0161C65.7935 13.4019 66.77 14.3998 68.0846 14.3998Z" fill="black"/>
<path d="M83.4274 16.229H81.4931L79.6903 11.5909C79.5588 11.2768 79.5025 10.9257 79.4086 10.6116C79.3335 10.9811 79.2396 11.2953 79.1081 11.6279L77.3053 16.229H75.4649L72.7043 7.83984H75.0142L76.3663 12.3855C76.4978 12.792 76.5353 13.1061 76.6105 13.4942C76.7043 13.1431 76.7607 12.8475 76.9297 12.3855L78.5072 7.83984H80.4227L82.0565 12.367C82.1879 12.7366 82.2818 13.1246 82.3757 13.5127C82.4508 13.1246 82.5447 12.7181 82.6386 12.3116L83.8781 7.83984H86.0565L83.4274 16.229Z" fill="black"/>
<path d="M90.6573 16.1931C89.4178 19.1865 88.6291 19.9072 87.3709 19.9072C86.6009 19.9072 86.0375 19.6115 85.5493 19.2605L86.2441 17.6529C86.4695 17.7822 86.7887 17.9485 87.1267 17.9485C87.6713 17.9485 88.0657 17.5235 88.4225 16.655L88.6103 16.2115L84.6854 7.85938H87.2958L89.2676 12.4235C89.4366 12.83 89.5493 13.2181 89.6807 13.6246C89.7558 13.2365 89.831 12.83 89.9812 12.405L91.5023 7.85938H93.9624L90.6573 16.1931Z" fill="black"/>
<path d="M19.0141 13.4023C18.5258 16.0078 16.385 18.2806 13.9249 19.5556C13.6244 19.7219 13.2676 19.8143 12.9296 19.8328H18.1502C18.6573 19.8328 19.0141 19.4632 19.0141 19.0013V13.4023Z" fill="#F7931E"/>
<path d="M8.57282 8.37596C8.49771 8.4314 8.42259 8.48683 8.34747 8.54227C7.07048 9.42922 3.20193 12.2749 2.3193 11.0368C1.45545 9.83574 2.37564 6.43574 4.5916 4.79118C4.62916 4.75422 4.6855 4.73574 4.72306 4.69879C7.14559 3.01727 8.94841 3.25748 9.83104 4.47705C10.6573 5.6227 9.73714 7.43357 8.57282 8.37596Z" fill="#8427E0"/>
<path d="M18.0376 11.019C16.8357 11.8505 14.9578 10.8896 14.0188 9.68853C13.9812 9.6331 13.9437 9.59614 13.9061 9.54071C13.0047 8.28418 10.1127 4.47766 11.3521 3.62766C12.5916 2.75918 16.1784 3.70157 17.8122 5.99288C17.8498 6.04831 17.8873 6.08527 17.9249 6.1407C19.5024 8.45049 19.2582 10.169 18.0376 11.019Z" fill="#00B5FF"/>
<path d="M16.4226 18.5202C16.385 18.5572 16.3475 18.5756 16.2911 18.6126C13.8686 20.2941 12.0658 20.0539 11.1832 18.8343C10.3569 17.6887 11.277 15.8778 12.4414 14.9354C12.5165 14.88 12.5916 14.8245 12.6667 14.7691C13.9437 13.9006 17.8123 11.0365 18.6761 12.2745C19.5587 13.4756 18.6573 16.8756 16.4226 18.5202Z" fill="#FFBD00"/>
<path d="M9.66194 19.6852C8.4225 20.5537 4.85443 19.6113 3.22063 17.32C3.18307 17.283 3.14551 17.2276 3.12673 17.1906C1.53049 14.8809 1.7934 13.1439 3.01405 12.3124C4.21593 11.4809 6.09387 12.4417 7.03283 13.6428C7.07039 13.6983 7.10795 13.7352 7.14551 13.7906C8.02814 15.0287 10.9202 18.8352 9.66194 19.6852Z" fill="#E3006D"/>
<path d="M8.57283 8.37596C6.84513 9.13357 3.16438 10.6857 2.61978 9.42922C2.1503 8.37596 3.01415 6.23248 4.59161 4.79118C4.62917 4.75422 4.68551 4.73574 4.72307 4.69879C7.1456 3.01727 8.94842 3.25748 9.83105 4.47705C10.6573 5.6227 9.73715 7.43357 8.57283 8.37596Z" fill="#9327FF"/>
<path d="M18.0375 11.0182C16.8357 11.8497 14.9577 10.8889 14.0188 9.68777C13.2488 7.93234 11.7652 4.4769 13.0047 3.95951C14.1314 3.47908 16.4601 4.43995 17.9436 6.13995C19.5023 8.44973 19.2582 10.1682 18.0375 11.0182Z" fill="#00C8FF"/>
<path d="M16.4226 18.5226C16.385 18.5596 16.3475 18.5781 16.2911 18.615C13.8686 20.2966 12.0658 20.0563 11.1832 18.8368C10.3569 17.6911 11.277 15.8803 12.4414 14.9379C14.1691 14.1803 17.8498 12.6281 18.3944 13.8846C18.8827 14.9379 18.0188 17.0813 16.4226 18.5226Z" fill="#FFCE00"/>
<path d="M8.04692 19.3526C6.92016 19.833 4.59152 18.8906 3.12673 17.1906C1.53049 14.8809 1.7934 13.1439 3.01405 12.3124C4.21593 11.4809 6.09387 12.4417 7.03283 13.6428C7.80279 15.3798 9.28635 18.8352 8.04692 19.3526Z" fill="#FB006D"/>
</g>
<defs>
<clipPath id="clip0_5647_35664">
<rect width="92" height="17" fill="white" transform="translate(2 3)"/>
</clipPath>
</defs>
</svg>
